<svg xmlns="http://www.w3.org/2000/svg" viewBox="0 0 150 150" data-v-286d80bd=""><path d="M148.111 44.7c-.12-6.1-1.28-12.13-3.42-17.84-3.83-9.88-11.63-17.68-21.51-21.51-5.71-2.15-11.75-3.3-17.85-3.43-7.87-.37-10.35-.45-30.34-.45s-22.46.08-30.3.45c-6.1.12-12.13 1.28-17.84 3.42a36.06 36.06 0 0 0-13.05 8.5c-3.73 3.67-6.62 8.1-8.47 12.99-2.14 5.71-3.29 11.74-3.42 17.83-.37 7.87-.44 10.35-.44 30.34l.45 30.31c.12 6.1 1.28 12.13 3.42 17.84a37.69 37.69 0 0 0 21.52 21.52c5.71 2.14 11.74 3.3 17.84 3.42 7.84.35 10.35.45 30.31.45s22.46-.09 30.31-.45c6.1-.12 12.13-1.28 17.84-3.42 9.88-3.82 17.7-11.63 21.52-21.52 2.14-5.71 3.3-11.74 3.42-17.84.35-7.84.45-10.35.45-30.31l-.37-30.31-.07.01zm-13.23 60.04c-.05 4.66-.9 9.28-2.53 13.65-2.48 6.41-7.54 11.47-13.95 13.95-4.37 1.62-8.99 2.48-13.65 2.53-7.76.35-10.08.45-29.7.45s-21.98-.09-29.7-.45c-4.66-.05-9.28-.9-13.65-2.53-3.19-1.17-6.08-3.05-8.45-5.49-2.45-2.37-4.33-5.25-5.52-8.44-1.62-4.37-2.48-8.99-2.53-13.65-.35-7.76-.45-10.08-.45-29.7l.45-29.7c.05-4.66.9-9.28 2.53-13.65a22.35 22.35 0 0 1 5.52-8.45c2.37-2.44 5.26-4.31 8.45-5.49 4.36-1.62 8.98-2.47 13.63-2.52 7.76-.35 10.08-.45 29.7-.45s21.98.09 29.7.45c4.66.05 9.28.9 13.65 2.53 3.19 1.17 6.08 3.05 8.45 5.49a22.92 22.92 0 0 1 5.49 8.45 40.28 40.28 0 0 1 2.57 13.64c.35 7.76.45 10.08.45 29.7s-.1 21.92-.46 29.68h0zm-59.88-67.51c-20.87 0-37.8 16.92-37.8 37.8 0 20.87 16.92 37.8 37.8 37.8s37.8-16.92 37.8-37.8c-.01-20.88-16.93-37.8-37.8-37.8zm0 62.28c-13.53 0-24.51-10.97-24.51-24.51s10.97-24.5 24.51-24.5c13.53 0 24.51 10.97 24.51 24.51h0c-.01 13.53-10.98 24.5-24.51 24.5zm48.09-63.77c0 4.87-3.95 8.82-8.82 8.82s-8.82-3.95-8.82-8.82 3.95-8.82 8.82-8.82h0c4.87 0 8.82 3.95 8.82 8.82z"></path></svg>
